<?xml version="1.0" standalone="no"?>
<!DOCTYPE svg PUBLIC "-//W3C//DTD SVG 20010904//EN"
 "http://www.w3.org/TR/2001/REC-SVG-20010904/DTD/svg10.dtd">
<svg version="1.0" xmlns="http://www.w3.org/2000/svg"
 width="1024.000000pt" height="1024.000000pt" viewBox="0 0 1024.000000 1024.000000"
 preserveAspectRatio="xMidYMid meet">

<g transform="translate(0.000000,1024.000000) scale(0.100000,-0.100000)"
fill="#000000" stroke="none">
<path d="M7452 5145 c0 -16 2 -22 5 -12 2 9 2 23 0 30 -3 6 -5 -1 -5 -18z"/>
<path d="M7329 4813 c-13 -16 -12 -17 4 -4 16 13 21 21 13 21 -2 0 -10 -8 -17
-17z"/>
<path d="M7244 4728 l-29 -33 33 29 c17 17 32 31 32 33 0 8 -8 1 -36 -29z"/>
<path d="M8283 4465 c0 -33 2 -45 4 -27 2 18 2 45 0 60 -2 15 -4 0 -4 -33z"/>
<path d="M6163 3649 c-435 -435 -784 -785 -776 -777 12 9 15 9 9 1 -4 -7 -16
-18 -28 -24 -15 -8 -19 -8 -13 1 4 6 -10 3 -31 -8 -62 -31 -134 -49 -201 -50
-34 0 -67 -3 -74 -8 -8 -5 -10 -3 -4 6 6 10 1 12 -26 7 -19 -4 -29 -4 -23 1 7
4 -10 15 -42 28 -29 12 -53 18 -52 15 2 -26 -17 -51 -41 -53 -44 -2 -47 -3
-75 -21 -14 -10 -24 -22 -21 -28 4 -5 3 -9 -2 -8 -19 3 -46 -1 -40 -7 6 -6
-41 -49 -87 -78 -23 -15 -30 -16 -37 -5 -6 10 -9 11 -9 1 0 -6 -3 -11 -7 -10
-14 4 -144 -46 -155 -59 -8 -10 -4 -13 18 -14 27 -2 27 -2 -5 -8 -32 -6 -33
-7 -16 -21 10 -8 16 -10 12 -4 -4 8 2 11 18 10 28 -1 34 -21 9 -30 -8 -3 -13
-10 -10 -15 3 -5 -3 -7 -15 -4 -14 4 -22 0 -25 -13 -6 -20 -34 -38 -126 -81
-32 -14 -58 -30 -58 -35 0 -4 -7 -8 -15 -8 -8 0 -23 -4 -33 -9 -46 -25 -110
-51 -125 -51 -21 0 -27 12 -29 54 -1 33 -3 35 -26 29 -16 -4 -23 -2 -19 4 4 6
-5 14 -19 17 -25 7 -38 2 -40 -12 -2 -15 -23 -56 -24 -47 0 6 -3 6 -8 -1 -4
-5 -32 -23 -62 -38 -30 -16 -61 -37 -68 -47 -9 -13 -25 -19 -48 -19 -19 0 -33
-4 -30 -8 7 -11 -59 -48 -128 -72 -130 -44 -208 -97 -193 -130 1 -3 -18 -8
-43 -11 -25 -4 -88 -14 -140 -24 -52 -9 -115 -14 -140 -11 -25 3 -58 2 -75 -3
-29 -9 -29 -9 -5 -11 14 -1 48 -5 75 -8 28 -3 1000 -6 2160 -7 2292 0 2158 -3
2332 56 391 131 688 476 758 879 13 69 15 200 15 710 -1 344 -5 643 -9 665 -5
23 -9 30 -10 18 -1 -21 -11 -28 -33 -24 -5 0 -8 -3 -8 -8 0 -5 -21 -14 -47
-21 -28 -8 -41 -15 -31 -17 16 -4 16 -6 4 -19 -8 -8 -21 -14 -28 -14 -10 0 -9
-3 2 -10 12 -8 12 -10 -5 -10 -13 0 -7 -7 20 -19 36 -17 37 -20 15 -21 l-25
-2 25 -7 c22 -6 23 -8 7 -14 -11 -4 -24 -4 -29 0 -6 3 -8 1 -5 -4 4 -6 -2 -13
-14 -16 -17 -5 -18 -3 -8 10 11 13 9 14 -11 11 -14 -2 -24 -9 -22 -16 1 -8 -2
-11 -7 -8 -15 9 -60 -15 -66 -36 -11 -33 -21 -19 -17 25 2 31 1 38 -7 27 -7
-9 -11 -10 -11 -3 0 6 5 15 10 18 6 3 10 10 10 15 0 10 -62 1 -70 -10 -3 -4
-25 -14 -50 -22 -57 -19 -68 -49 -33 -95 24 -33 30 -48 13 -38 -5 3 -7 0 -4
-9 3 -9 -3 -19 -18 -27 -12 -7 -28 -17 -35 -23 -26 -24 -38 -32 -48 -35 -5 -2
-20 -7 -33 -12 -36 -14 -40 -12 -47 29 -10 64 -14 66 -86 46 -42 -12 -73 -28
-94 -49 -33 -34 -81 -55 -127 -55 -24 0 -106 -37 -299 -135 -10 -5 -19 -16
-19 -23 0 -7 -4 -10 -10 -7 -6 4 -9 -4 -7 -17 2 -21 -2 -23 -49 -23 -40 0 -58
-6 -87 -28 -20 -15 -53 -35 -72 -43 -20 -8 -33 -18 -31 -23 3 -5 -12 -13 -34
-19 -32 -8 -40 -7 -40 4 0 11 -10 10 -52 -6 -28 -11 -54 -23 -57 -28 -3 -5
-17 -13 -31 -17 -13 -4 -30 -14 -38 -21 -7 -8 -18 -12 -23 -9 -5 4 -9 1 -9 -4
0 -6 9 -11 19 -11 13 0 18 -6 17 -17 -2 -10 -9 -18 -17 -18 -8 0 -25 -9 -37
-21 -27 -24 -168 -64 -255 -73 -5 -1 -6 -5 -3 -10 8 -13 -12 -26 -63 -40 -48
-14 -91 -1 -91 26 0 28 -66 10 -102 -28 -13 -13 -14 -19 -5 -22 7 -3 -1 -6
-18 -7 -20 -1 -25 -4 -15 -8 14 -6 14 -9 0 -22 -17 -17 -29 -18 -47 -7 -16 10
-62 -23 -63 -45 0 -9 -10 -19 -22 -21 -13 -2 -4 -5 20 -6 23 0 42 4 42 9 0 6
7 10 15 10 8 0 15 5 15 10 0 6 5 10 11 10 5 0 7 -4 4 -10 -3 -5 -1 -10 5 -10
7 0 5 -6 -4 -15 -8 -8 -17 -15 -21 -15 -3 0 -15 -9 -27 -20 -12 -11 -32 -20
-45 -20 -13 0 -23 -4 -23 -10 0 -5 -13 -10 -28 -10 -15 0 -34 -6 -41 -12 -11
-10 -13 -10 -7 0 4 6 2 12 -3 12 -6 0 -11 -5 -11 -11 0 -6 -8 -9 -18 -7 -15 4
-46 -17 -47 -32 -1 -15 -66 -71 -104 -89 -53 -25 -116 -28 -125 -6 -3 9 1 18
9 21 8 4 15 11 15 18 0 6 343 354 763 774 419 419 760 762 757 762 -3 0 -361
-356 -797 -791z m1396 177 c19 -22 7 -61 -17 -60 -65 2 -82 5 -82 15 0 7 9 9
21 6 20 -5 20 -5 2 15 -14 16 -15 20 -3 18 32 -5 61 0 55 10 -9 15 11 12 24
-4z m-1672 -692 c-3 -3 -12 -4 -19 -1 -8 3 -5 6 6 6 11 1 17 -2 13 -5z m-617
-334 c-8 -5 -19 -10 -25 -10 -5 0 -3 5 5 10 8 5 20 10 25 10 6 0 3 -5 -5 -10z
m-1003 -526 c-3 -3 -12 -4 -19 -1 -8 3 -5 6 6 6 11 1 17 -2 13 -5z m-480 -40
c-3 -3 -12 -4 -19 -1 -8 3 -5 6 6 6 11 1 17 -2 13 -5z m49 -29 c-8 -8 -20 -15
-26 -15 -6 0 -8 -4 -5 -10 7 -11 7 -11 -49 -13 -22 -1 -41 3 -43 8 -5 17 50
43 95 44 39 1 42 -1 28 -14z"/>
<path d="M8272 4383 c-6 -12 -5 -29 4 -48 l13 -30 1 48 c0 50 -4 57 -18 30z"/>
<path d="M5080 4386 c0 -2 8 -10 18 -17 15 -13 16 -12 3 4 -13 16 -21 21 -21
13z"/>
<path d="M5389 4293 l-24 -28 28 24 c25 23 32 31 24 31 -2 0 -14 -12 -28 -27z"/>
<path d="M5230 4239 c0 -3 13 -18 29 -33 22 -21 31 -25 37 -14 4 7 3 10 -1 5
-5 -4 -21 5 -37 20 -15 15 -28 24 -28 22z"/>
<path d="M7040 3770 c-12 -8 -10 -10 8 -10 13 0 20 4 17 10 -7 12 -6 12 -25 0z"/>
<path d="M6998 3743 c6 -2 18 -2 25 0 6 3 1 5 -13 5 -14 0 -19 -2 -12 -5z"/>
<path d="M6365 3340 c-21 -23 -8 -27 20 -7 11 8 14 16 8 20 -6 4 -18 -2 -28
-13z"/>
<path d="M4490 3226 c0 -2 8 -10 18 -17 15 -13 16 -12 3 4 -13 16 -21 21 -21
13z"/>
<path d="M4605 3110 c10 -11 20 -20 23 -20 3 0 -3 9 -13 20 -10 11 -20 20 -23
20 -3 0 3 -9 13 -20z"/>
<path d="M4730 2985 c47 -47 87 -85 90 -85 2 0 -33 38 -80 85 -47 47 -87 85
-90 85 -2 0 33 -38 80 -85z"/>
<path d="M5798 3063 c7 -3 16 -2 19 1 4 3 -2 6 -13 5 -11 0 -14 -3 -6 -6z"/>
<path d="M4840 2886 c0 -2 8 -10 18 -17 15 -13 16 -12 3 4 -13 16 -21 21 -21
13z"/>
<path d="M4600 2860 c13 -8 12 -10 -5 -11 -13 -1 -10 -4 10 -8 36 -9 37 -8 29
13 -3 9 -16 16 -28 16 -17 0 -18 -2 -6 -10z"/>
<path d="M4701 2815 c-56 -23 -73 -39 -64 -62 3 -9 24 -13 62 -13 40 0 52 3
41 10 -12 8 -12 10 5 11 17 1 16 2 -5 9 -14 4 -18 9 -10 9 13 1 13 2 0 11 -12
7 -8 10 15 10 21 0 26 3 16 9 -11 7 -10 10 5 13 16 3 16 5 4 10 -9 3 -40 -4
-69 -17z"/>
</g>
</svg>
